<mxfile host="app.diagrams.net" agent="Mozilla/5.0 (Windows NT 10.0; Win64; x64) AppleWebKit/537.36 (KHTML, like Gecko) Chrome/134.0.0.0 Safari/537.36" version="26.1.0">
  <diagram id="C5RBs43oDa-KdzZeNtuy" name="Page-1">
    <mxGraphModel dx="3500" dy="1857" grid="1" gridSize="10" guides="1" tooltips="1" connect="1" arrows="1" fold="1" page="1" pageScale="1" pageWidth="3300" pageHeight="2339" math="0" shadow="0" adaptiveColors="simple">
      <root>
        <mxCell id="WIyWlLk6GJQsqaUBKTNV-0" />
        <mxCell id="WIyWlLk6GJQsqaUBKTNV-1" parent="WIyWlLk6GJQsqaUBKTNV-0" />
        <mxCell id="Bbc_HPqRMFwFOX_S-oPe-0" value="User" style="swimlane;fontStyle=1;align=center;verticalAlign=top;childLayout=stackLayout;horizontal=1;startSize=30.4;horizontalStack=0;resizeParent=1;resizeParentMax=0;resizeLast=0;collapsible=0;marginBottom=0;rounded=1;strokeWidth=2;" vertex="1" parent="WIyWlLk6GJQsqaUBKTNV-1">
          <mxGeometry x="955" y="767" width="170" height="220" as="geometry" />
        </mxCell>
        <mxCell id="Bbc_HPqRMFwFOX_S-oPe-1" value="- int user_id" style="text;strokeColor=none;fillColor=none;align=left;verticalAlign=top;spacingLeft=4;spacingRight=4;overflow=hidden;rotatable=0;points=[[0,0.5],[1,0.5]];portConstraint=eastwest;rounded=1;strokeWidth=2;fontStyle=1" vertex="1" parent="Bbc_HPqRMFwFOX_S-oPe-0">
          <mxGeometry y="30.4" width="170" height="30" as="geometry" />
        </mxCell>
        <mxCell id="Bbc_HPqRMFwFOX_S-oPe-2" value="- string name" style="text;strokeColor=none;fillColor=none;align=left;verticalAlign=top;spacingLeft=4;spacingRight=4;overflow=hidden;rotatable=0;points=[[0,0.5],[1,0.5]];portConstraint=eastwest;rounded=1;strokeWidth=2;fontStyle=1" vertex="1" parent="Bbc_HPqRMFwFOX_S-oPe-0">
          <mxGeometry y="60.4" width="170" height="30" as="geometry" />
        </mxCell>
        <mxCell id="Bbc_HPqRMFwFOX_S-oPe-3" value="- string tel" style="text;strokeColor=none;fillColor=none;align=left;verticalAlign=top;spacingLeft=4;spacingRight=4;overflow=hidden;rotatable=0;points=[[0,0.5],[1,0.5]];portConstraint=eastwest;rounded=1;strokeWidth=2;fontStyle=1" vertex="1" parent="Bbc_HPqRMFwFOX_S-oPe-0">
          <mxGeometry y="90.4" width="170" height="30" as="geometry" />
        </mxCell>
        <mxCell id="Bbc_HPqRMFwFOX_S-oPe-4" value="- string password" style="text;strokeColor=none;fillColor=none;align=left;verticalAlign=top;spacingLeft=4;spacingRight=4;overflow=hidden;rotatable=0;points=[[0,0.5],[1,0.5]];portConstraint=eastwest;rounded=1;strokeWidth=2;fontStyle=1" vertex="1" parent="Bbc_HPqRMFwFOX_S-oPe-0">
          <mxGeometry y="120.4" width="170" height="29.6" as="geometry" />
        </mxCell>
        <mxCell id="Bbc_HPqRMFwFOX_S-oPe-5" style="line;strokeWidth=2;fillColor=none;align=left;verticalAlign=middle;spacingTop=-1;spacingLeft=3;spacingRight=3;rotatable=0;labelPosition=right;points=[];portConstraint=eastwest;strokeColor=inherit;rounded=1;fontStyle=1" vertex="1" parent="Bbc_HPqRMFwFOX_S-oPe-0">
          <mxGeometry y="150" width="170" height="70" as="geometry" />
        </mxCell>
        <mxCell id="Bbc_HPqRMFwFOX_S-oPe-11" value="Member" style="swimlane;fontStyle=1;align=center;verticalAlign=top;childLayout=stackLayout;horizontal=1;startSize=26.56;horizontalStack=0;resizeParent=1;resizeParentMax=0;resizeLast=0;collapsible=0;marginBottom=0;rounded=1;strokeWidth=2;" vertex="1" parent="WIyWlLk6GJQsqaUBKTNV-1">
          <mxGeometry x="441" y="1160.2" width="469" height="439.56" as="geometry" />
        </mxCell>
        <mxCell id="Bbc_HPqRMFwFOX_S-oPe-12" value="- list order_list" style="text;strokeColor=none;fillColor=none;align=left;verticalAlign=top;spacingLeft=4;spacingRight=4;overflow=hidden;rotatable=0;points=[[0,0.5],[1,0.5]];portConstraint=eastwest;rounded=1;strokeWidth=2;fontStyle=1" vertex="1" parent="Bbc_HPqRMFwFOX_S-oPe-11">
          <mxGeometry y="26.56" width="469" height="27" as="geometry" />
        </mxCell>
        <mxCell id="Bbc_HPqRMFwFOX_S-oPe-13" value="- list address_list" style="text;strokeColor=none;fillColor=none;align=left;verticalAlign=top;spacingLeft=4;spacingRight=4;overflow=hidden;rotatable=0;points=[[0,0.5],[1,0.5]];portConstraint=eastwest;rounded=1;strokeWidth=2;fontStyle=1" vertex="1" parent="Bbc_HPqRMFwFOX_S-oPe-11">
          <mxGeometry y="53.56" width="469" height="27" as="geometry" />
        </mxCell>
        <mxCell id="Bbc_HPqRMFwFOX_S-oPe-14" value="- Payment payment" style="text;strokeColor=none;fillColor=none;align=left;verticalAlign=top;spacingLeft=4;spacingRight=4;overflow=hidden;rotatable=0;points=[[0,0.5],[1,0.5]];portConstraint=eastwest;rounded=1;strokeWidth=2;fontStyle=1" vertex="1" parent="Bbc_HPqRMFwFOX_S-oPe-11">
          <mxGeometry y="80.56" width="469" height="27" as="geometry" />
        </mxCell>
        <mxCell id="Bbc_HPqRMFwFOX_S-oPe-15" value="- int point" style="text;strokeColor=none;fillColor=none;align=left;verticalAlign=top;spacingLeft=4;spacingRight=4;overflow=hidden;rotatable=0;points=[[0,0.5],[1,0.5]];portConstraint=eastwest;rounded=1;strokeWidth=2;fontStyle=1" vertex="1" parent="Bbc_HPqRMFwFOX_S-oPe-11">
          <mxGeometry y="107.56" width="469" height="27" as="geometry" />
        </mxCell>
        <mxCell id="Bbc_HPqRMFwFOX_S-oPe-16" value="- list coupon_list" style="text;strokeColor=none;fillColor=none;align=left;verticalAlign=top;spacingLeft=4;spacingRight=4;overflow=hidden;rotatable=0;points=[[0,0.5],[1,0.5]];portConstraint=eastwest;rounded=1;strokeWidth=2;fontStyle=1" vertex="1" parent="Bbc_HPqRMFwFOX_S-oPe-11">
          <mxGeometry y="134.56" width="469" height="27" as="geometry" />
        </mxCell>
        <mxCell id="Bbc_HPqRMFwFOX_S-oPe-17" value="- Cart cart" style="text;strokeColor=none;fillColor=none;align=left;verticalAlign=top;spacingLeft=4;spacingRight=4;overflow=hidden;rotatable=0;points=[[0,0.5],[1,0.5]];portConstraint=eastwest;rounded=1;strokeWidth=2;fontStyle=1" vertex="1" parent="Bbc_HPqRMFwFOX_S-oPe-11">
          <mxGeometry y="161.56" width="469" height="27" as="geometry" />
        </mxCell>
        <mxCell id="Bbc_HPqRMFwFOX_S-oPe-18" value="- int current_id" style="text;strokeColor=none;fillColor=none;align=left;verticalAlign=top;spacingLeft=4;spacingRight=4;overflow=hidden;rotatable=0;points=[[0,0.5],[1,0.5]];portConstraint=eastwest;rounded=1;strokeWidth=2;fontStyle=1" vertex="1" parent="Bbc_HPqRMFwFOX_S-oPe-11">
          <mxGeometry y="188.56" width="469" height="27" as="geometry" />
        </mxCell>
        <mxCell id="Bbc_HPqRMFwFOX_S-oPe-19" value="- string lastname" style="text;strokeColor=none;fillColor=none;align=left;verticalAlign=top;spacingLeft=4;spacingRight=4;overflow=hidden;rotatable=0;points=[[0,0.5],[1,0.5]];portConstraint=eastwest;rounded=1;strokeWidth=2;fontStyle=1" vertex="1" parent="Bbc_HPqRMFwFOX_S-oPe-11">
          <mxGeometry y="215.56" width="469" height="27" as="geometry" />
        </mxCell>
        <mxCell id="Bbc_HPqRMFwFOX_S-oPe-20" style="line;strokeWidth=2;fillColor=none;align=left;verticalAlign=middle;spacingTop=-1;spacingLeft=3;spacingRight=3;rotatable=0;labelPosition=right;points=[];portConstraint=eastwest;strokeColor=inherit;rounded=1;fontStyle=1" vertex="1" parent="Bbc_HPqRMFwFOX_S-oPe-11">
          <mxGeometry y="242.56" width="469" height="8" as="geometry" />
        </mxCell>
        <mxCell id="Bbc_HPqRMFwFOX_S-oPe-25" value="+ add_to_cart(menu, quantity, addons=None, sizes=None)" style="text;strokeColor=none;fillColor=none;align=left;verticalAlign=top;spacingLeft=4;spacingRight=4;overflow=hidden;rotatable=0;points=[[0,0.5],[1,0.5]];portConstraint=eastwest;rounded=1;strokeWidth=2;fontStyle=1" vertex="1" parent="Bbc_HPqRMFwFOX_S-oPe-11">
          <mxGeometry y="250.56" width="469" height="27" as="geometry" />
        </mxCell>
        <mxCell id="Bbc_HPqRMFwFOX_S-oPe-27" value="+ checkout()" style="text;strokeColor=none;fillColor=none;align=left;verticalAlign=top;spacingLeft=4;spacingRight=4;overflow=hidden;rotatable=0;points=[[0,0.5],[1,0.5]];portConstraint=eastwest;rounded=1;strokeWidth=2;fontStyle=1" vertex="1" parent="Bbc_HPqRMFwFOX_S-oPe-11">
          <mxGeometry y="277.56" width="469" height="27" as="geometry" />
        </mxCell>
        <mxCell id="Bbc_HPqRMFwFOX_S-oPe-28" value="+ create_order()" style="text;strokeColor=none;fillColor=none;align=left;verticalAlign=top;spacingLeft=4;spacingRight=4;overflow=hidden;rotatable=0;points=[[0,0.5],[1,0.5]];portConstraint=eastwest;rounded=1;strokeWidth=2;fontStyle=1" vertex="1" parent="Bbc_HPqRMFwFOX_S-oPe-11">
          <mxGeometry y="304.56" width="469" height="27" as="geometry" />
        </mxCell>
        <mxCell id="Bbc_HPqRMFwFOX_S-oPe-29" value="+ pay_order(order_id, payment_method)" style="text;strokeColor=none;fillColor=none;align=left;verticalAlign=top;spacingLeft=4;spacingRight=4;overflow=hidden;rotatable=0;points=[[0,0.5],[1,0.5]];portConstraint=eastwest;rounded=1;strokeWidth=2;fontStyle=1" vertex="1" parent="Bbc_HPqRMFwFOX_S-oPe-11">
          <mxGeometry y="331.56" width="469" height="27" as="geometry" />
        </mxCell>
        <mxCell id="Bbc_HPqRMFwFOX_S-oPe-32" value="+ remove_coupon(coupon : Coupon)" style="text;strokeColor=none;fillColor=none;align=left;verticalAlign=top;spacingLeft=4;spacingRight=4;overflow=hidden;rotatable=0;points=[[0,0.5],[1,0.5]];portConstraint=eastwest;rounded=1;strokeWidth=2;fontStyle=1" vertex="1" parent="Bbc_HPqRMFwFOX_S-oPe-11">
          <mxGeometry y="358.56" width="469" height="27" as="geometry" />
        </mxCell>
        <mxCell id="Bbc_HPqRMFwFOX_S-oPe-33" value="+ exchange_point_to_coupon(coupon_code)" style="text;strokeColor=none;fillColor=none;align=left;verticalAlign=top;spacingLeft=4;spacingRight=4;overflow=hidden;rotatable=0;points=[[0,0.5],[1,0.5]];portConstraint=eastwest;rounded=1;strokeWidth=2;fontStyle=1" vertex="1" parent="Bbc_HPqRMFwFOX_S-oPe-11">
          <mxGeometry y="385.56" width="469" height="27" as="geometry" />
        </mxCell>
        <mxCell id="Bbc_HPqRMFwFOX_S-oPe-36" value="+ view_order_history()" style="text;strokeColor=none;fillColor=none;align=left;verticalAlign=top;spacingLeft=4;spacingRight=4;overflow=hidden;rotatable=0;points=[[0,0.5],[1,0.5]];portConstraint=eastwest;rounded=1;strokeWidth=2;fontStyle=1" vertex="1" parent="Bbc_HPqRMFwFOX_S-oPe-11">
          <mxGeometry y="412.56" width="469" height="27" as="geometry" />
        </mxCell>
        <mxCell id="Bbc_HPqRMFwFOX_S-oPe-37" value="Admin" style="swimlane;fontStyle=1;align=center;verticalAlign=top;childLayout=stackLayout;horizontal=1;startSize=36.8;horizontalStack=0;resizeParent=1;resizeParentMax=0;resizeLast=0;collapsible=0;marginBottom=0;rounded=1;strokeWidth=2;" vertex="1" parent="WIyWlLk6GJQsqaUBKTNV-1">
          <mxGeometry x="408" y="857" width="444" height="155.8" as="geometry" />
        </mxCell>
        <mxCell id="Bbc_HPqRMFwFOX_S-oPe-38" value="- string type" style="text;strokeColor=none;fillColor=none;align=left;verticalAlign=top;spacingLeft=4;spacingRight=4;overflow=hidden;rotatable=0;points=[[0,0.5],[1,0.5]];portConstraint=eastwest;rounded=1;strokeWidth=2;fontStyle=1" vertex="1" parent="Bbc_HPqRMFwFOX_S-oPe-37">
          <mxGeometry y="36.8" width="444" height="37" as="geometry" />
        </mxCell>
        <mxCell id="Bbc_HPqRMFwFOX_S-oPe-39" style="line;strokeWidth=2;fillColor=none;align=left;verticalAlign=middle;spacingTop=-1;spacingLeft=3;spacingRight=3;rotatable=0;labelPosition=right;points=[];portConstraint=eastwest;strokeColor=inherit;rounded=1;fontStyle=1" vertex="1" parent="Bbc_HPqRMFwFOX_S-oPe-37">
          <mxGeometry y="73.8" width="444" height="8" as="geometry" />
        </mxCell>
        <mxCell id="Bbc_HPqRMFwFOX_S-oPe-41" value="+ view_orders(system)" style="text;strokeColor=none;fillColor=none;align=left;verticalAlign=top;spacingLeft=4;spacingRight=4;overflow=hidden;rotatable=0;points=[[0,0.5],[1,0.5]];portConstraint=eastwest;rounded=1;strokeWidth=2;fontStyle=1" vertex="1" parent="Bbc_HPqRMFwFOX_S-oPe-37">
          <mxGeometry y="81.8" width="444" height="37" as="geometry" />
        </mxCell>
        <mxCell id="Bbc_HPqRMFwFOX_S-oPe-42" value="+ manage_menu(system, action, menu_item, menu_id)" style="text;strokeColor=none;fillColor=none;align=left;verticalAlign=top;spacingLeft=4;spacingRight=4;overflow=hidden;rotatable=0;points=[[0,0.5],[1,0.5]];portConstraint=eastwest;rounded=1;strokeWidth=2;fontStyle=1" vertex="1" parent="Bbc_HPqRMFwFOX_S-oPe-37">
          <mxGeometry y="118.8" width="444" height="37" as="geometry" />
        </mxCell>
        <mxCell id="Bbc_HPqRMFwFOX_S-oPe-43" value="Menu" style="swimlane;fontStyle=1;align=center;verticalAlign=top;childLayout=stackLayout;horizontal=1;startSize=28.923076923076923;horizontalStack=0;resizeParent=1;resizeParentMax=0;resizeLast=0;collapsible=0;marginBottom=0;rounded=1;strokeWidth=2;" vertex="1" parent="WIyWlLk6GJQsqaUBKTNV-1">
          <mxGeometry x="2026" y="987" width="187" height="306.76307692307694" as="geometry" />
        </mxCell>
        <mxCell id="Bbc_HPqRMFwFOX_S-oPe-44" value="- string category" style="text;strokeColor=none;fillColor=none;align=left;verticalAlign=top;spacingLeft=4;spacingRight=4;overflow=hidden;rotatable=0;points=[[0,0.5],[1,0.5]];portConstraint=eastwest;rounded=1;strokeWidth=2;fontStyle=1" vertex="1" parent="Bbc_HPqRMFwFOX_S-oPe-43">
          <mxGeometry y="28.923076923076923" width="187" height="29" as="geometry" />
        </mxCell>
        <mxCell id="Bbc_HPqRMFwFOX_S-oPe-45" value="- int menu_id" style="text;strokeColor=none;fillColor=none;align=left;verticalAlign=top;spacingLeft=4;spacingRight=4;overflow=hidden;rotatable=0;points=[[0,0.5],[1,0.5]];portConstraint=eastwest;rounded=1;strokeWidth=2;fontStyle=1" vertex="1" parent="Bbc_HPqRMFwFOX_S-oPe-43">
          <mxGeometry y="57.92307692307692" width="187" height="29" as="geometry" />
        </mxCell>
        <mxCell id="Bbc_HPqRMFwFOX_S-oPe-46" value="- string name" style="text;strokeColor=none;fillColor=none;align=left;verticalAlign=top;spacingLeft=4;spacingRight=4;overflow=hidden;rotatable=0;points=[[0,0.5],[1,0.5]];portConstraint=eastwest;rounded=1;strokeWidth=2;fontStyle=1" vertex="1" parent="Bbc_HPqRMFwFOX_S-oPe-43">
          <mxGeometry y="86.92307692307692" width="187" height="29" as="geometry" />
        </mxCell>
        <mxCell id="Bbc_HPqRMFwFOX_S-oPe-47" value="- float price" style="text;strokeColor=none;fillColor=none;align=left;verticalAlign=top;spacingLeft=4;spacingRight=4;overflow=hidden;rotatable=0;points=[[0,0.5],[1,0.5]];portConstraint=eastwest;rounded=1;strokeWidth=2;fontStyle=1" vertex="1" parent="Bbc_HPqRMFwFOX_S-oPe-43">
          <mxGeometry y="115.92307692307692" width="187" height="29" as="geometry" />
        </mxCell>
        <mxCell id="Bbc_HPqRMFwFOX_S-oPe-48" value="- string detail" style="text;strokeColor=none;fillColor=none;align=left;verticalAlign=top;spacingLeft=4;spacingRight=4;overflow=hidden;rotatable=0;points=[[0,0.5],[1,0.5]];portConstraint=eastwest;rounded=1;strokeWidth=2;fontStyle=1" vertex="1" parent="Bbc_HPqRMFwFOX_S-oPe-43">
          <mxGeometry y="144.9230769230769" width="187" height="29" as="geometry" />
        </mxCell>
        <mxCell id="Bbc_HPqRMFwFOX_S-oPe-49" value="- string src" style="text;strokeColor=none;fillColor=none;align=left;verticalAlign=top;spacingLeft=4;spacingRight=4;overflow=hidden;rotatable=0;points=[[0,0.5],[1,0.5]];portConstraint=eastwest;rounded=1;strokeWidth=2;fontStyle=1" vertex="1" parent="Bbc_HPqRMFwFOX_S-oPe-43">
          <mxGeometry y="173.9230769230769" width="187" height="29" as="geometry" />
        </mxCell>
        <mxCell id="Bbc_HPqRMFwFOX_S-oPe-50" style="line;strokeWidth=2;fillColor=none;align=left;verticalAlign=middle;spacingTop=-1;spacingLeft=3;spacingRight=3;rotatable=0;labelPosition=right;points=[];portConstraint=eastwest;strokeColor=inherit;rounded=1;fontStyle=1" vertex="1" parent="Bbc_HPqRMFwFOX_S-oPe-43">
          <mxGeometry y="202.9230769230769" width="187" height="103.84" as="geometry" />
        </mxCell>
        <mxCell id="Bbc_HPqRMFwFOX_S-oPe-57" value="Burger" style="swimlane;fontStyle=1;align=center;verticalAlign=top;childLayout=stackLayout;horizontal=1;startSize=34.666666666666664;horizontalStack=0;resizeParent=1;resizeParentMax=0;resizeLast=0;collapsible=0;marginBottom=0;rounded=1;strokeWidth=2;" vertex="1" parent="WIyWlLk6GJQsqaUBKTNV-1">
          <mxGeometry x="1780" y="1525.85" width="253" height="147.66666666666666" as="geometry" />
        </mxCell>
        <mxCell id="Bbc_HPqRMFwFOX_S-oPe-58" value="- Dict addons" style="text;strokeColor=none;fillColor=none;align=left;verticalAlign=top;spacingLeft=4;spacingRight=4;overflow=hidden;rotatable=0;points=[[0,0.5],[1,0.5]];portConstraint=eastwest;rounded=1;strokeWidth=2;fontStyle=1" vertex="1" parent="Bbc_HPqRMFwFOX_S-oPe-57">
          <mxGeometry y="34.666666666666664" width="253" height="35" as="geometry" />
        </mxCell>
        <mxCell id="Bbc_HPqRMFwFOX_S-oPe-59" style="line;strokeWidth=2;fillColor=none;align=left;verticalAlign=middle;spacingTop=-1;spacingLeft=3;spacingRight=3;rotatable=0;labelPosition=right;points=[];portConstraint=eastwest;strokeColor=inherit;rounded=1;fontStyle=1" vertex="1" parent="Bbc_HPqRMFwFOX_S-oPe-57">
          <mxGeometry y="69.66666666666666" width="253" height="8" as="geometry" />
        </mxCell>
        <mxCell id="Bbc_HPqRMFwFOX_S-oPe-60" value="+ add_addon(, addon, price)" style="text;strokeColor=none;fillColor=none;align=left;verticalAlign=top;spacingLeft=4;spacingRight=4;overflow=hidden;rotatable=0;points=[[0,0.5],[1,0.5]];portConstraint=eastwest;rounded=1;strokeWidth=2;fontStyle=1" vertex="1" parent="Bbc_HPqRMFwFOX_S-oPe-57">
          <mxGeometry y="77.66666666666666" width="253" height="35" as="geometry" />
        </mxCell>
        <mxCell id="Bbc_HPqRMFwFOX_S-oPe-62" value="+ calculate_total_price()" style="text;strokeColor=none;fillColor=none;align=left;verticalAlign=top;spacingLeft=4;spacingRight=4;overflow=hidden;rotatable=0;points=[[0,0.5],[1,0.5]];portConstraint=eastwest;rounded=1;strokeWidth=2;fontStyle=1" vertex="1" parent="Bbc_HPqRMFwFOX_S-oPe-57">
          <mxGeometry y="112.66666666666666" width="253" height="35" as="geometry" />
        </mxCell>
        <mxCell id="Bbc_HPqRMFwFOX_S-oPe-64" value="Beverage" style="swimlane;fontStyle=1;align=center;verticalAlign=top;childLayout=stackLayout;horizontal=1;startSize=40;horizontalStack=0;resizeParent=1;resizeParentMax=0;resizeLast=0;collapsible=0;marginBottom=0;rounded=1;strokeWidth=2;" vertex="1" parent="WIyWlLk6GJQsqaUBKTNV-1">
          <mxGeometry x="2080" y="1525.85" width="142" height="118" as="geometry" />
        </mxCell>
        <mxCell id="Bbc_HPqRMFwFOX_S-oPe-65" value="- string size" style="text;strokeColor=none;fillColor=none;align=left;verticalAlign=top;spacingLeft=4;spacingRight=4;overflow=hidden;rotatable=0;points=[[0,0.5],[1,0.5]];portConstraint=eastwest;rounded=1;strokeWidth=2;fontStyle=1" vertex="1" parent="Bbc_HPqRMFwFOX_S-oPe-64">
          <mxGeometry y="40" width="142" height="40" as="geometry" />
        </mxCell>
        <mxCell id="Bbc_HPqRMFwFOX_S-oPe-66" style="line;strokeWidth=2;fillColor=none;align=left;verticalAlign=middle;spacingTop=-1;spacingLeft=3;spacingRight=3;rotatable=0;labelPosition=right;points=[];portConstraint=eastwest;strokeColor=inherit;rounded=1;fontStyle=1" vertex="1" parent="Bbc_HPqRMFwFOX_S-oPe-64">
          <mxGeometry y="80" width="142" height="38" as="geometry" />
        </mxCell>
        <mxCell id="Bbc_HPqRMFwFOX_S-oPe-69" value="Snack" style="swimlane;fontStyle=1;align=center;verticalAlign=top;childLayout=stackLayout;horizontal=1;startSize=31;horizontalStack=0;resizeParent=1;resizeParentMax=0;resizeLast=0;collapsible=0;marginBottom=0;rounded=1;strokeWidth=2;" vertex="1" parent="WIyWlLk6GJQsqaUBKTNV-1">
          <mxGeometry x="2265" y="1525.85" width="100" height="50" as="geometry" />
        </mxCell>
        <mxCell id="Bbc_HPqRMFwFOX_S-oPe-70" style="line;strokeWidth=2;fillColor=none;align=left;verticalAlign=middle;spacingTop=-1;spacingLeft=3;spacingRight=3;rotatable=0;labelPosition=right;points=[];portConstraint=eastwest;strokeColor=inherit;rounded=1;fontStyle=1" vertex="1" parent="Bbc_HPqRMFwFOX_S-oPe-69">
          <mxGeometry y="31" width="100" height="19" as="geometry" />
        </mxCell>
        <mxCell id="Bbc_HPqRMFwFOX_S-oPe-71" value="MenuSet" style="swimlane;fontStyle=1;align=center;verticalAlign=top;childLayout=stackLayout;horizontal=1;startSize=40;horizontalStack=0;resizeParent=1;resizeParentMax=0;resizeLast=0;collapsible=0;marginBottom=0;rounded=1;strokeWidth=2;" vertex="1" parent="WIyWlLk6GJQsqaUBKTNV-1">
          <mxGeometry x="2400" y="1525.85" width="263" height="128" as="geometry" />
        </mxCell>
        <mxCell id="Bbc_HPqRMFwFOX_S-oPe-72" value="- list menu_set_list" style="text;strokeColor=none;fillColor=none;align=left;verticalAlign=top;spacingLeft=4;spacingRight=4;overflow=hidden;rotatable=0;points=[[0,0.5],[1,0.5]];portConstraint=eastwest;rounded=1;strokeWidth=2;fontStyle=1" vertex="1" parent="Bbc_HPqRMFwFOX_S-oPe-71">
          <mxGeometry y="40" width="263" height="40" as="geometry" />
        </mxCell>
        <mxCell id="Bbc_HPqRMFwFOX_S-oPe-73" style="line;strokeWidth=2;fillColor=none;align=left;verticalAlign=middle;spacingTop=-1;spacingLeft=3;spacingRight=3;rotatable=0;labelPosition=right;points=[];portConstraint=eastwest;strokeColor=inherit;rounded=1;fontStyle=1" vertex="1" parent="Bbc_HPqRMFwFOX_S-oPe-71">
          <mxGeometry y="80" width="263" height="8" as="geometry" />
        </mxCell>
        <mxCell id="Bbc_HPqRMFwFOX_S-oPe-75" value="+ remove_menu_item(menu)" style="text;strokeColor=none;fillColor=none;align=left;verticalAlign=top;spacingLeft=4;spacingRight=4;overflow=hidden;rotatable=0;points=[[0,0.5],[1,0.5]];portConstraint=eastwest;rounded=1;strokeWidth=2;fontStyle=1" vertex="1" parent="Bbc_HPqRMFwFOX_S-oPe-71">
          <mxGeometry y="88" width="263" height="40" as="geometry" />
        </mxCell>
        <mxCell id="Bbc_HPqRMFwFOX_S-oPe-76" value="Order" style="swimlane;fontStyle=1;align=center;verticalAlign=top;childLayout=stackLayout;horizontal=1;startSize=27.764705882352942;horizontalStack=0;resizeParent=1;resizeParentMax=0;resizeLast=0;collapsible=0;marginBottom=0;rounded=1;strokeWidth=2;" vertex="1" parent="WIyWlLk6GJQsqaUBKTNV-1">
          <mxGeometry x="1414" y="1388" width="216" height="259.7647058823529" as="geometry" />
        </mxCell>
        <mxCell id="Bbc_HPqRMFwFOX_S-oPe-78" value="- string status" style="text;strokeColor=none;fillColor=none;align=left;verticalAlign=top;spacingLeft=4;spacingRight=4;overflow=hidden;rotatable=0;points=[[0,0.5],[1,0.5]];portConstraint=eastwest;rounded=1;strokeWidth=2;fontStyle=1" vertex="1" parent="Bbc_HPqRMFwFOX_S-oPe-76">
          <mxGeometry y="27.764705882352942" width="216" height="28" as="geometry" />
        </mxCell>
        <mxCell id="Bbc_HPqRMFwFOX_S-oPe-79" value="- instance member" style="text;strokeColor=none;fillColor=none;align=left;verticalAlign=top;spacingLeft=4;spacingRight=4;overflow=hidden;rotatable=0;points=[[0,0.5],[1,0.5]];portConstraint=eastwest;rounded=1;strokeWidth=2;fontStyle=1" vertex="1" parent="Bbc_HPqRMFwFOX_S-oPe-76">
          <mxGeometry y="55.76470588235294" width="216" height="28" as="geometry" />
        </mxCell>
        <mxCell id="Bbc_HPqRMFwFOX_S-oPe-77" value="- int order_id" style="text;strokeColor=none;fillColor=none;align=left;verticalAlign=top;spacingLeft=4;spacingRight=4;overflow=hidden;rotatable=0;points=[[0,0.5],[1,0.5]];portConstraint=eastwest;rounded=1;strokeWidth=2;fontStyle=1" vertex="1" parent="Bbc_HPqRMFwFOX_S-oPe-76">
          <mxGeometry y="83.76470588235294" width="216" height="28" as="geometry" />
        </mxCell>
        <mxCell id="Bbc_HPqRMFwFOX_S-oPe-80" value="- float total_price" style="text;strokeColor=none;fillColor=none;align=left;verticalAlign=top;spacingLeft=4;spacingRight=4;overflow=hidden;rotatable=0;points=[[0,0.5],[1,0.5]];portConstraint=eastwest;rounded=1;strokeWidth=2;fontStyle=1" vertex="1" parent="Bbc_HPqRMFwFOX_S-oPe-76">
          <mxGeometry y="111.76470588235294" width="216" height="28" as="geometry" />
        </mxCell>
        <mxCell id="Bbc_HPqRMFwFOX_S-oPe-81" value="- list cart_items" style="text;strokeColor=none;fillColor=none;align=left;verticalAlign=top;spacingLeft=4;spacingRight=4;overflow=hidden;rotatable=0;points=[[0,0.5],[1,0.5]];portConstraint=eastwest;rounded=1;strokeWidth=2;fontStyle=1" vertex="1" parent="Bbc_HPqRMFwFOX_S-oPe-76">
          <mxGeometry y="139.76470588235293" width="216" height="28" as="geometry" />
        </mxCell>
        <mxCell id="Bbc_HPqRMFwFOX_S-oPe-82" value="- instance payment" style="text;strokeColor=none;fillColor=none;align=left;verticalAlign=top;spacingLeft=4;spacingRight=4;overflow=hidden;rotatable=0;points=[[0,0.5],[1,0.5]];portConstraint=eastwest;rounded=1;strokeWidth=2;fontStyle=1" vertex="1" parent="Bbc_HPqRMFwFOX_S-oPe-76">
          <mxGeometry y="167.76470588235293" width="216" height="28" as="geometry" />
        </mxCell>
        <mxCell id="Bbc_HPqRMFwFOX_S-oPe-83" style="line;strokeWidth=2;fillColor=none;align=left;verticalAlign=middle;spacingTop=-1;spacingLeft=3;spacingRight=3;rotatable=0;labelPosition=right;points=[];portConstraint=eastwest;strokeColor=inherit;rounded=1;fontStyle=1" vertex="1" parent="Bbc_HPqRMFwFOX_S-oPe-76">
          <mxGeometry y="195.76470588235293" width="216" height="8" as="geometry" />
        </mxCell>
        <mxCell id="Bbc_HPqRMFwFOX_S-oPe-92" value="+ remove_item()" style="text;strokeColor=none;fillColor=none;align=left;verticalAlign=top;spacingLeft=4;spacingRight=4;overflow=hidden;rotatable=0;points=[[0,0.5],[1,0.5]];portConstraint=eastwest;rounded=1;strokeWidth=2;fontStyle=1" vertex="1" parent="Bbc_HPqRMFwFOX_S-oPe-76">
          <mxGeometry y="203.76470588235293" width="216" height="28" as="geometry" />
        </mxCell>
        <mxCell id="Bbc_HPqRMFwFOX_S-oPe-93" value="+ calculate_total()" style="text;strokeColor=none;fillColor=none;align=left;verticalAlign=top;spacingLeft=4;spacingRight=4;overflow=hidden;rotatable=0;points=[[0,0.5],[1,0.5]];portConstraint=eastwest;rounded=1;strokeWidth=2;fontStyle=1" vertex="1" parent="Bbc_HPqRMFwFOX_S-oPe-76">
          <mxGeometry y="231.76470588235293" width="216" height="28" as="geometry" />
        </mxCell>
        <mxCell id="Bbc_HPqRMFwFOX_S-oPe-94" value="Cart" style="swimlane;fontStyle=1;align=center;verticalAlign=top;childLayout=stackLayout;horizontal=1;startSize=29.818181818181817;horizontalStack=0;resizeParent=1;resizeParentMax=0;resizeLast=0;collapsible=0;marginBottom=0;rounded=1;strokeWidth=2;" vertex="1" parent="WIyWlLk6GJQsqaUBKTNV-1">
          <mxGeometry x="30" y="1640" width="599" height="217.8181818181818" as="geometry" />
        </mxCell>
        <mxCell id="Bbc_HPqRMFwFOX_S-oPe-95" value="- list item_list" style="text;strokeColor=none;fillColor=none;align=left;verticalAlign=top;spacingLeft=4;spacingRight=4;overflow=hidden;rotatable=0;points=[[0,0.5],[1,0.5]];portConstraint=eastwest;rounded=1;strokeWidth=2;fontStyle=1" vertex="1" parent="Bbc_HPqRMFwFOX_S-oPe-94">
          <mxGeometry y="29.818181818181817" width="599" height="30" as="geometry" />
        </mxCell>
        <mxCell id="Bbc_HPqRMFwFOX_S-oPe-96" value="- Coupon applied_coupon" style="text;strokeColor=none;fillColor=none;align=left;verticalAlign=top;spacingLeft=4;spacingRight=4;overflow=hidden;rotatable=0;points=[[0,0.5],[1,0.5]];portConstraint=eastwest;rounded=1;strokeWidth=2;fontStyle=1" vertex="1" parent="Bbc_HPqRMFwFOX_S-oPe-94">
          <mxGeometry y="59.81818181818181" width="599" height="30" as="geometry" />
        </mxCell>
        <mxCell id="Bbc_HPqRMFwFOX_S-oPe-97" style="line;strokeWidth=2;fillColor=none;align=left;verticalAlign=middle;spacingTop=-1;spacingLeft=3;spacingRight=3;rotatable=0;labelPosition=right;points=[];portConstraint=eastwest;strokeColor=inherit;rounded=1;fontStyle=1" vertex="1" parent="Bbc_HPqRMFwFOX_S-oPe-94">
          <mxGeometry y="89.81818181818181" width="599" height="8" as="geometry" />
        </mxCell>
        <mxCell id="Bbc_HPqRMFwFOX_S-oPe-98" value="+ add_item(menu, quantity, total_price, cart_addons=None, cart_sizes=None)" style="text;strokeColor=none;fillColor=none;align=left;verticalAlign=top;spacingLeft=4;spacingRight=4;overflow=hidden;rotatable=0;points=[[0,0.5],[1,0.5]];portConstraint=eastwest;rounded=1;strokeWidth=2;fontStyle=1" vertex="1" parent="Bbc_HPqRMFwFOX_S-oPe-94">
          <mxGeometry y="97.81818181818181" width="599" height="30" as="geometry" />
        </mxCell>
        <mxCell id="Bbc_HPqRMFwFOX_S-oPe-99" value="+ apply_coupon(coupon, member)" style="text;strokeColor=none;fillColor=none;align=left;verticalAlign=top;spacingLeft=4;spacingRight=4;overflow=hidden;rotatable=0;points=[[0,0.5],[1,0.5]];portConstraint=eastwest;rounded=1;strokeWidth=2;fontStyle=1" vertex="1" parent="Bbc_HPqRMFwFOX_S-oPe-94">
          <mxGeometry y="127.81818181818181" width="599" height="30" as="geometry" />
        </mxCell>
        <mxCell id="Bbc_HPqRMFwFOX_S-oPe-101" value="+ calculate_total_price()" style="text;strokeColor=none;fillColor=none;align=left;verticalAlign=top;spacingLeft=4;spacingRight=4;overflow=hidden;rotatable=0;points=[[0,0.5],[1,0.5]];portConstraint=eastwest;rounded=1;strokeWidth=2;fontStyle=1" vertex="1" parent="Bbc_HPqRMFwFOX_S-oPe-94">
          <mxGeometry y="157.8181818181818" width="599" height="30" as="geometry" />
        </mxCell>
        <mxCell id="Bbc_HPqRMFwFOX_S-oPe-103" value="+ remove_item(menu, addons=None, sizes=None)" style="text;strokeColor=none;fillColor=none;align=left;verticalAlign=top;spacingLeft=4;spacingRight=4;overflow=hidden;rotatable=0;points=[[0,0.5],[1,0.5]];portConstraint=eastwest;rounded=1;strokeWidth=2;fontStyle=1" vertex="1" parent="Bbc_HPqRMFwFOX_S-oPe-94">
          <mxGeometry y="187.8181818181818" width="599" height="30" as="geometry" />
        </mxCell>
        <mxCell id="Bbc_HPqRMFwFOX_S-oPe-106" value="CartItem" style="swimlane;fontStyle=1;align=center;verticalAlign=top;childLayout=stackLayout;horizontal=1;startSize=29.333333333333332;horizontalStack=0;resizeParent=1;resizeParentMax=0;resizeLast=0;collapsible=0;marginBottom=0;rounded=1;strokeWidth=2;" vertex="1" parent="WIyWlLk6GJQsqaUBKTNV-1">
          <mxGeometry x="810" y="1640" width="200" height="211.33333333333331" as="geometry" />
        </mxCell>
        <mxCell id="Bbc_HPqRMFwFOX_S-oPe-107" value="- Menu menu" style="text;strokeColor=none;fillColor=none;align=left;verticalAlign=top;spacingLeft=4;spacingRight=4;overflow=hidden;rotatable=0;points=[[0,0.5],[1,0.5]];portConstraint=eastwest;rounded=1;strokeWidth=2;fontStyle=1" vertex="1" parent="Bbc_HPqRMFwFOX_S-oPe-106">
          <mxGeometry y="29.333333333333332" width="200" height="29" as="geometry" />
        </mxCell>
        <mxCell id="Bbc_HPqRMFwFOX_S-oPe-108" value="- int amount" style="text;strokeColor=none;fillColor=none;align=left;verticalAlign=top;spacingLeft=4;spacingRight=4;overflow=hidden;rotatable=0;points=[[0,0.5],[1,0.5]];portConstraint=eastwest;rounded=1;strokeWidth=2;fontStyle=1" vertex="1" parent="Bbc_HPqRMFwFOX_S-oPe-106">
          <mxGeometry y="58.33333333333333" width="200" height="29" as="geometry" />
        </mxCell>
        <mxCell id="Bbc_HPqRMFwFOX_S-oPe-109" value="- float total_price" style="text;strokeColor=none;fillColor=none;align=left;verticalAlign=top;spacingLeft=4;spacingRight=4;overflow=hidden;rotatable=0;points=[[0,0.5],[1,0.5]];portConstraint=eastwest;rounded=1;strokeWidth=2;fontStyle=1" vertex="1" parent="Bbc_HPqRMFwFOX_S-oPe-106">
          <mxGeometry y="87.33333333333333" width="200" height="29" as="geometry" />
        </mxCell>
        <mxCell id="Bbc_HPqRMFwFOX_S-oPe-110" value="- list addons" style="text;strokeColor=none;fillColor=none;align=left;verticalAlign=top;spacingLeft=4;spacingRight=4;overflow=hidden;rotatable=0;points=[[0,0.5],[1,0.5]];portConstraint=eastwest;rounded=1;strokeWidth=2;fontStyle=1" vertex="1" parent="Bbc_HPqRMFwFOX_S-oPe-106">
          <mxGeometry y="116.33333333333333" width="200" height="29" as="geometry" />
        </mxCell>
        <mxCell id="Bbc_HPqRMFwFOX_S-oPe-111" value="- string sizes" style="text;strokeColor=none;fillColor=none;align=left;verticalAlign=top;spacingLeft=4;spacingRight=4;overflow=hidden;rotatable=0;points=[[0,0.5],[1,0.5]];portConstraint=eastwest;rounded=1;strokeWidth=2;fontStyle=1" vertex="1" parent="Bbc_HPqRMFwFOX_S-oPe-106">
          <mxGeometry y="145.33333333333331" width="200" height="29" as="geometry" />
        </mxCell>
        <mxCell id="Bbc_HPqRMFwFOX_S-oPe-112" style="line;strokeWidth=2;fillColor=none;align=left;verticalAlign=middle;spacingTop=-1;spacingLeft=3;spacingRight=3;rotatable=0;labelPosition=right;points=[];portConstraint=eastwest;strokeColor=inherit;rounded=1;fontStyle=1" vertex="1" parent="Bbc_HPqRMFwFOX_S-oPe-106">
          <mxGeometry y="174.33333333333331" width="200" height="8" as="geometry" />
        </mxCell>
        <mxCell id="Bbc_HPqRMFwFOX_S-oPe-117" value="+ update_quantity()" style="text;strokeColor=none;fillColor=none;align=left;verticalAlign=top;spacingLeft=4;spacingRight=4;overflow=hidden;rotatable=0;points=[[0,0.5],[1,0.5]];portConstraint=eastwest;rounded=1;strokeWidth=2;fontStyle=1" vertex="1" parent="Bbc_HPqRMFwFOX_S-oPe-106">
          <mxGeometry y="182.33333333333331" width="200" height="29" as="geometry" />
        </mxCell>
        <mxCell id="Bbc_HPqRMFwFOX_S-oPe-119" value="Payment" style="swimlane;fontStyle=1;align=center;verticalAlign=top;childLayout=stackLayout;horizontal=1;startSize=32;horizontalStack=0;resizeParent=1;resizeParentMax=0;resizeLast=0;collapsible=0;marginBottom=0;rounded=1;strokeWidth=2;" vertex="1" parent="WIyWlLk6GJQsqaUBKTNV-1">
          <mxGeometry x="1395" y="1680" width="257" height="284" as="geometry" />
        </mxCell>
        <mxCell id="Bbc_HPqRMFwFOX_S-oPe-120" value="- int payment_id" style="text;strokeColor=none;fillColor=none;align=left;verticalAlign=top;spacingLeft=4;spacingRight=4;overflow=hidden;rotatable=0;points=[[0,0.5],[1,0.5]];portConstraint=eastwest;rounded=1;strokeWidth=2;fontStyle=1" vertex="1" parent="Bbc_HPqRMFwFOX_S-oPe-119">
          <mxGeometry y="32" width="257" height="32" as="geometry" />
        </mxCell>
        <mxCell id="Bbc_HPqRMFwFOX_S-oPe-121" value="- string date" style="text;strokeColor=none;fillColor=none;align=left;verticalAlign=top;spacingLeft=4;spacingRight=4;overflow=hidden;rotatable=0;points=[[0,0.5],[1,0.5]];portConstraint=eastwest;rounded=1;strokeWidth=2;fontStyle=1" vertex="1" parent="Bbc_HPqRMFwFOX_S-oPe-119">
          <mxGeometry y="64" width="257" height="32" as="geometry" />
        </mxCell>
        <mxCell id="Bbc_HPqRMFwFOX_S-oPe-122" value="- float total_price" style="text;strokeColor=none;fillColor=none;align=left;verticalAlign=top;spacingLeft=4;spacingRight=4;overflow=hidden;rotatable=0;points=[[0,0.5],[1,0.5]];portConstraint=eastwest;rounded=1;strokeWidth=2;fontStyle=1" vertex="1" parent="Bbc_HPqRMFwFOX_S-oPe-119">
          <mxGeometry y="96" width="257" height="32" as="geometry" />
        </mxCell>
        <mxCell id="Bbc_HPqRMFwFOX_S-oPe-123" value="- string status" style="text;strokeColor=none;fillColor=none;align=left;verticalAlign=top;spacingLeft=4;spacingRight=4;overflow=hidden;rotatable=0;points=[[0,0.5],[1,0.5]];portConstraint=eastwest;rounded=1;strokeWidth=2;fontStyle=1" vertex="1" parent="Bbc_HPqRMFwFOX_S-oPe-119">
          <mxGeometry y="128" width="257" height="32" as="geometry" />
        </mxCell>
        <mxCell id="Bbc_HPqRMFwFOX_S-oPe-124" value="- string discount" style="text;strokeColor=none;fillColor=none;align=left;verticalAlign=top;spacingLeft=4;spacingRight=4;overflow=hidden;rotatable=0;points=[[0,0.5],[1,0.5]];portConstraint=eastwest;rounded=1;strokeWidth=2;fontStyle=1" vertex="1" parent="Bbc_HPqRMFwFOX_S-oPe-119">
          <mxGeometry y="160" width="257" height="32" as="geometry" />
        </mxCell>
        <mxCell id="Bbc_HPqRMFwFOX_S-oPe-125" value="- instance payment_method" style="text;strokeColor=none;fillColor=none;align=left;verticalAlign=top;spacingLeft=4;spacingRight=4;overflow=hidden;rotatable=0;points=[[0,0.5],[1,0.5]];portConstraint=eastwest;rounded=1;strokeWidth=2;fontStyle=1" vertex="1" parent="Bbc_HPqRMFwFOX_S-oPe-119">
          <mxGeometry y="192" width="257" height="32" as="geometry" />
        </mxCell>
        <mxCell id="Bbc_HPqRMFwFOX_S-oPe-126" style="line;strokeWidth=2;fillColor=none;align=left;verticalAlign=middle;spacingTop=-1;spacingLeft=3;spacingRight=3;rotatable=0;labelPosition=right;points=[];portConstraint=eastwest;strokeColor=inherit;rounded=1;fontStyle=1" vertex="1" parent="Bbc_HPqRMFwFOX_S-oPe-119">
          <mxGeometry y="224" width="257" height="60" as="geometry" />
        </mxCell>
        <mxCell id="Bbc_HPqRMFwFOX_S-oPe-128" value="PaymentMethod" style="swimlane;fontStyle=1;align=center;verticalAlign=top;childLayout=stackLayout;horizontal=1;startSize=40;horizontalStack=0;resizeParent=1;resizeParentMax=0;resizeLast=0;collapsible=0;marginBottom=0;rounded=1;strokeWidth=2;" vertex="1" parent="WIyWlLk6GJQsqaUBKTNV-1">
          <mxGeometry x="1367" y="1998" width="313" height="168" as="geometry" />
        </mxCell>
        <mxCell id="Bbc_HPqRMFwFOX_S-oPe-129" value="- int payment_method_id" style="text;strokeColor=none;fillColor=none;align=left;verticalAlign=top;spacingLeft=4;spacingRight=4;overflow=hidden;rotatable=0;points=[[0,0.5],[1,0.5]];portConstraint=eastwest;rounded=1;strokeWidth=2;fontStyle=1" vertex="1" parent="Bbc_HPqRMFwFOX_S-oPe-128">
          <mxGeometry y="40" width="313" height="40" as="geometry" />
        </mxCell>
        <mxCell id="Bbc_HPqRMFwFOX_S-oPe-130" value="- string payment_method_name" style="text;strokeColor=none;fillColor=none;align=left;verticalAlign=top;spacingLeft=4;spacingRight=4;overflow=hidden;rotatable=0;points=[[0,0.5],[1,0.5]];portConstraint=eastwest;rounded=1;strokeWidth=2;fontStyle=1" vertex="1" parent="Bbc_HPqRMFwFOX_S-oPe-128">
          <mxGeometry y="80" width="313" height="40" as="geometry" />
        </mxCell>
        <mxCell id="Bbc_HPqRMFwFOX_S-oPe-131" style="line;strokeWidth=2;fillColor=none;align=left;verticalAlign=middle;spacingTop=-1;spacingLeft=3;spacingRight=3;rotatable=0;labelPosition=right;points=[];portConstraint=eastwest;strokeColor=inherit;rounded=1;fontStyle=1" vertex="1" parent="Bbc_HPqRMFwFOX_S-oPe-128">
          <mxGeometry y="120" width="313" height="8" as="geometry" />
        </mxCell>
        <mxCell id="Bbc_HPqRMFwFOX_S-oPe-132" value="+ process_payment(amount)" style="text;strokeColor=none;fillColor=none;align=left;verticalAlign=top;spacingLeft=4;spacingRight=4;overflow=hidden;rotatable=0;points=[[0,0.5],[1,0.5]];portConstraint=eastwest;rounded=1;strokeWidth=2;fontStyle=1" vertex="1" parent="Bbc_HPqRMFwFOX_S-oPe-128">
          <mxGeometry y="128" width="313" height="40" as="geometry" />
        </mxCell>
        <mxCell id="Bbc_HPqRMFwFOX_S-oPe-133" value="QRCode" style="swimlane;fontStyle=1;align=center;verticalAlign=top;childLayout=stackLayout;horizontal=1;startSize=44.8;horizontalStack=0;resizeParent=1;resizeParentMax=0;resizeLast=0;collapsible=0;marginBottom=0;rounded=1;strokeWidth=2;" vertex="1" parent="WIyWlLk6GJQsqaUBKTNV-1">
          <mxGeometry x="1100" y="2040" width="186" height="141.6" as="geometry" />
        </mxCell>
        <mxCell id="Bbc_HPqRMFwFOX_S-oPe-134" value="- str qr_code_data" style="text;strokeColor=none;fillColor=none;align=left;verticalAlign=top;spacingLeft=4;spacingRight=4;overflow=hidden;rotatable=0;points=[[0,0.5],[1,0.5]];portConstraint=eastwest;rounded=1;strokeWidth=2;fontStyle=1" vertex="1" parent="Bbc_HPqRMFwFOX_S-oPe-133">
          <mxGeometry y="44.8" width="186" height="45" as="geometry" />
        </mxCell>
        <mxCell id="Bbc_HPqRMFwFOX_S-oPe-135" style="line;strokeWidth=2;fillColor=none;align=left;verticalAlign=middle;spacingTop=-1;spacingLeft=3;spacingRight=3;rotatable=0;labelPosition=right;points=[];portConstraint=eastwest;strokeColor=inherit;rounded=1;fontStyle=1" vertex="1" parent="Bbc_HPqRMFwFOX_S-oPe-133">
          <mxGeometry y="89.8" width="186" height="51.8" as="geometry" />
        </mxCell>
        <mxCell id="Bbc_HPqRMFwFOX_S-oPe-136" value="CreditCard" style="swimlane;fontStyle=1;align=center;verticalAlign=top;childLayout=stackLayout;horizontal=1;startSize=35.55555555555556;horizontalStack=0;resizeParent=1;resizeParentMax=0;resizeLast=0;collapsible=0;marginBottom=0;rounded=1;strokeWidth=2;" vertex="1" parent="WIyWlLk6GJQsqaUBKTNV-1">
          <mxGeometry x="1850" y="1992" width="215" height="205.11555555555555" as="geometry" />
        </mxCell>
        <mxCell id="Bbc_HPqRMFwFOX_S-oPe-137" value="- string card_number" style="text;strokeColor=none;fillColor=none;align=left;verticalAlign=top;spacingLeft=4;spacingRight=4;overflow=hidden;rotatable=0;points=[[0,0.5],[1,0.5]];portConstraint=eastwest;rounded=1;strokeWidth=2;fontStyle=1" vertex="1" parent="Bbc_HPqRMFwFOX_S-oPe-136">
          <mxGeometry y="35.55555555555556" width="215" height="36" as="geometry" />
        </mxCell>
        <mxCell id="Bbc_HPqRMFwFOX_S-oPe-138" value="- string expiry_date" style="text;strokeColor=none;fillColor=none;align=left;verticalAlign=top;spacingLeft=4;spacingRight=4;overflow=hidden;rotatable=0;points=[[0,0.5],[1,0.5]];portConstraint=eastwest;rounded=1;strokeWidth=2;fontStyle=1" vertex="1" parent="Bbc_HPqRMFwFOX_S-oPe-136">
          <mxGeometry y="71.55555555555556" width="215" height="36" as="geometry" />
        </mxCell>
        <mxCell id="Bbc_HPqRMFwFOX_S-oPe-139" value="- string cvv" style="text;strokeColor=none;fillColor=none;align=left;verticalAlign=top;spacingLeft=4;spacingRight=4;overflow=hidden;rotatable=0;points=[[0,0.5],[1,0.5]];portConstraint=eastwest;rounded=1;strokeWidth=2;fontStyle=1" vertex="1" parent="Bbc_HPqRMFwFOX_S-oPe-136">
          <mxGeometry y="107.55555555555556" width="215" height="36" as="geometry" />
        </mxCell>
        <mxCell id="Bbc_HPqRMFwFOX_S-oPe-140" style="line;strokeWidth=2;fillColor=none;align=left;verticalAlign=middle;spacingTop=-1;spacingLeft=3;spacingRight=3;rotatable=0;labelPosition=right;points=[];portConstraint=eastwest;strokeColor=inherit;rounded=1;fontStyle=1" vertex="1" parent="Bbc_HPqRMFwFOX_S-oPe-136">
          <mxGeometry y="143.55555555555554" width="215" height="61.56" as="geometry" />
        </mxCell>
        <mxCell id="Bbc_HPqRMFwFOX_S-oPe-141" value="Coupon" style="swimlane;fontStyle=1;align=center;verticalAlign=top;childLayout=stackLayout;horizontal=1;startSize=33.142857142857146;horizontalStack=0;resizeParent=1;resizeParentMax=0;resizeLast=0;collapsible=0;marginBottom=0;rounded=1;strokeWidth=2;" vertex="1" parent="WIyWlLk6GJQsqaUBKTNV-1">
          <mxGeometry x="830" y="318.53" width="230" height="204.28285714285715" as="geometry" />
        </mxCell>
        <mxCell id="Bbc_HPqRMFwFOX_S-oPe-142" value="- string name" style="text;strokeColor=none;fillColor=none;align=left;verticalAlign=top;spacingLeft=4;spacingRight=4;overflow=hidden;rotatable=0;points=[[0,0.5],[1,0.5]];portConstraint=eastwest;rounded=1;strokeWidth=2;fontStyle=1" vertex="1" parent="Bbc_HPqRMFwFOX_S-oPe-141">
          <mxGeometry y="33.142857142857146" width="230" height="33" as="geometry" />
        </mxCell>
        <mxCell id="Bbc_HPqRMFwFOX_S-oPe-143" value="- float discount" style="text;strokeColor=none;fillColor=none;align=left;verticalAlign=top;spacingLeft=4;spacingRight=4;overflow=hidden;rotatable=0;points=[[0,0.5],[1,0.5]];portConstraint=eastwest;rounded=1;strokeWidth=2;fontStyle=1" vertex="1" parent="Bbc_HPqRMFwFOX_S-oPe-141">
          <mxGeometry y="66.14285714285714" width="230" height="33" as="geometry" />
        </mxCell>
        <mxCell id="Bbc_HPqRMFwFOX_S-oPe-144" value="- string expire_date" style="text;strokeColor=none;fillColor=none;align=left;verticalAlign=top;spacingLeft=4;spacingRight=4;overflow=hidden;rotatable=0;points=[[0,0.5],[1,0.5]];portConstraint=eastwest;rounded=1;strokeWidth=2;fontStyle=1" vertex="1" parent="Bbc_HPqRMFwFOX_S-oPe-141">
          <mxGeometry y="99.14285714285714" width="230" height="33" as="geometry" />
        </mxCell>
        <mxCell id="Bbc_HPqRMFwFOX_S-oPe-145" style="line;strokeWidth=2;fillColor=none;align=left;verticalAlign=middle;spacingTop=-1;spacingLeft=3;spacingRight=3;rotatable=0;labelPosition=right;points=[];portConstraint=eastwest;strokeColor=inherit;rounded=1;fontStyle=1" vertex="1" parent="Bbc_HPqRMFwFOX_S-oPe-141">
          <mxGeometry y="132.14285714285714" width="230" height="72.14" as="geometry" />
        </mxCell>
        <mxCell id="Bbc_HPqRMFwFOX_S-oPe-149" value="System" style="swimlane;fontStyle=1;align=center;verticalAlign=top;childLayout=stackLayout;horizontal=1;startSize=26.20689655172414;horizontalStack=0;resizeParent=1;resizeParentMax=0;resizeLast=0;collapsible=0;marginBottom=0;rounded=1;strokeWidth=2;" vertex="1" parent="WIyWlLk6GJQsqaUBKTNV-1">
          <mxGeometry x="1370" y="57" width="561" height="684.2068965517242" as="geometry" />
        </mxCell>
        <mxCell id="Bbc_HPqRMFwFOX_S-oPe-150" value="- list user_list" style="text;strokeColor=none;fillColor=none;align=left;verticalAlign=top;spacingLeft=4;spacingRight=4;overflow=hidden;rotatable=0;points=[[0,0.5],[1,0.5]];portConstraint=eastwest;rounded=1;strokeWidth=2;fontStyle=1" vertex="1" parent="Bbc_HPqRMFwFOX_S-oPe-149">
          <mxGeometry y="26.20689655172414" width="561" height="26" as="geometry" />
        </mxCell>
        <mxCell id="Bbc_HPqRMFwFOX_S-oPe-151" value="- list menu_list" style="text;strokeColor=none;fillColor=none;align=left;verticalAlign=top;spacingLeft=4;spacingRight=4;overflow=hidden;rotatable=0;points=[[0,0.5],[1,0.5]];portConstraint=eastwest;rounded=1;strokeWidth=2;fontStyle=1" vertex="1" parent="Bbc_HPqRMFwFOX_S-oPe-149">
          <mxGeometry y="52.20689655172414" width="561" height="26" as="geometry" />
        </mxCell>
        <mxCell id="Bbc_HPqRMFwFOX_S-oPe-152" value="- insatance payment_method" style="text;strokeColor=none;fillColor=none;align=left;verticalAlign=top;spacingLeft=4;spacingRight=4;overflow=hidden;rotatable=0;points=[[0,0.5],[1,0.5]];portConstraint=eastwest;rounded=1;strokeWidth=2;fontStyle=1" vertex="1" parent="Bbc_HPqRMFwFOX_S-oPe-149">
          <mxGeometry y="78.20689655172414" width="561" height="26" as="geometry" />
        </mxCell>
        <mxCell id="Bbc_HPqRMFwFOX_S-oPe-153" style="line;strokeWidth=2;fillColor=none;align=left;verticalAlign=middle;spacingTop=-1;spacingLeft=3;spacingRight=3;rotatable=0;labelPosition=right;points=[];portConstraint=eastwest;strokeColor=inherit;rounded=1;fontStyle=1" vertex="1" parent="Bbc_HPqRMFwFOX_S-oPe-149">
          <mxGeometry y="104.20689655172414" width="561" height="8" as="geometry" />
        </mxCell>
        <mxCell id="Bbc_HPqRMFwFOX_S-oPe-154" value="+ register(new_user)" style="text;strokeColor=none;fillColor=none;align=left;verticalAlign=top;spacingLeft=4;spacingRight=4;overflow=hidden;rotatable=0;points=[[0,0.5],[1,0.5]];portConstraint=eastwest;rounded=1;strokeWidth=2;fontStyle=1" vertex="1" parent="Bbc_HPqRMFwFOX_S-oPe-149">
          <mxGeometry y="112.20689655172414" width="561" height="26" as="geometry" />
        </mxCell>
        <mxCell id="Bbc_HPqRMFwFOX_S-oPe-156" value="+ add_coupon(coupon : Coupon)" style="text;strokeColor=none;fillColor=none;align=left;verticalAlign=top;spacingLeft=4;spacingRight=4;overflow=hidden;rotatable=0;points=[[0,0.5],[1,0.5]];portConstraint=eastwest;rounded=1;strokeWidth=2;fontStyle=1" vertex="1" parent="Bbc_HPqRMFwFOX_S-oPe-149">
          <mxGeometry y="138.20689655172413" width="561" height="26" as="geometry" />
        </mxCell>
        <mxCell id="Bbc_HPqRMFwFOX_S-oPe-157" value="+ add_menu(menu_item)" style="text;strokeColor=none;fillColor=none;align=left;verticalAlign=top;spacingLeft=4;spacingRight=4;overflow=hidden;rotatable=0;points=[[0,0.5],[1,0.5]];portConstraint=eastwest;rounded=1;strokeWidth=2;fontStyle=1" vertex="1" parent="Bbc_HPqRMFwFOX_S-oPe-149">
          <mxGeometry y="164.20689655172413" width="561" height="26" as="geometry" />
        </mxCell>
        <mxCell id="Bbc_HPqRMFwFOX_S-oPe-158" value="+ remove_menu(menu_id)" style="text;strokeColor=none;fillColor=none;align=left;verticalAlign=top;spacingLeft=4;spacingRight=4;overflow=hidden;rotatable=0;points=[[0,0.5],[1,0.5]];portConstraint=eastwest;rounded=1;strokeWidth=2;fontStyle=1" vertex="1" parent="Bbc_HPqRMFwFOX_S-oPe-149">
          <mxGeometry y="190.20689655172413" width="561" height="26" as="geometry" />
        </mxCell>
        <mxCell id="Bbc_HPqRMFwFOX_S-oPe-159" value="+ filter_category(target_category)" style="text;strokeColor=none;fillColor=none;align=left;verticalAlign=top;spacingLeft=4;spacingRight=4;overflow=hidden;rotatable=0;points=[[0,0.5],[1,0.5]];portConstraint=eastwest;rounded=1;strokeWidth=2;fontStyle=1" vertex="1" parent="Bbc_HPqRMFwFOX_S-oPe-149">
          <mxGeometry y="216.20689655172413" width="561" height="26" as="geometry" />
        </mxCell>
        <mxCell id="Bbc_HPqRMFwFOX_S-oPe-160" value="+ search_products_by_name(search: str)" style="text;strokeColor=none;fillColor=none;align=left;verticalAlign=top;spacingLeft=4;spacingRight=4;overflow=hidden;rotatable=0;points=[[0,0.5],[1,0.5]];portConstraint=eastwest;rounded=1;strokeWidth=2;fontStyle=1" vertex="1" parent="Bbc_HPqRMFwFOX_S-oPe-149">
          <mxGeometry y="242.20689655172413" width="561" height="26" as="geometry" />
        </mxCell>
        <mxCell id="Bbc_HPqRMFwFOX_S-oPe-162" value="+ add_user_list(user)" style="text;strokeColor=none;fillColor=none;align=left;verticalAlign=top;spacingLeft=4;spacingRight=4;overflow=hidden;rotatable=0;points=[[0,0.5],[1,0.5]];portConstraint=eastwest;rounded=1;strokeWidth=2;fontStyle=1" vertex="1" parent="Bbc_HPqRMFwFOX_S-oPe-149">
          <mxGeometry y="268.2068965517241" width="561" height="26" as="geometry" />
        </mxCell>
        <mxCell id="Bbc_HPqRMFwFOX_S-oPe-163" value="+ display_menu()" style="text;strokeColor=none;fillColor=none;align=left;verticalAlign=top;spacingLeft=4;spacingRight=4;overflow=hidden;rotatable=0;points=[[0,0.5],[1,0.5]];portConstraint=eastwest;rounded=1;strokeWidth=2;fontStyle=1" vertex="1" parent="Bbc_HPqRMFwFOX_S-oPe-149">
          <mxGeometry y="294.2068965517241" width="561" height="26" as="geometry" />
        </mxCell>
        <mxCell id="Bbc_HPqRMFwFOX_S-oPe-165" value="+ check_password(input_username, input_passwd)" style="text;strokeColor=none;fillColor=none;align=left;verticalAlign=top;spacingLeft=4;spacingRight=4;overflow=hidden;rotatable=0;points=[[0,0.5],[1,0.5]];portConstraint=eastwest;rounded=1;strokeWidth=2;fontStyle=1" vertex="1" parent="Bbc_HPqRMFwFOX_S-oPe-149">
          <mxGeometry y="320.2068965517241" width="561" height="26" as="geometry" />
        </mxCell>
        <mxCell id="Bbc_HPqRMFwFOX_S-oPe-166" value="+ select_menu(menu_id)" style="text;strokeColor=none;fillColor=none;align=left;verticalAlign=top;spacingLeft=4;spacingRight=4;overflow=hidden;rotatable=0;points=[[0,0.5],[1,0.5]];portConstraint=eastwest;rounded=1;strokeWidth=2;fontStyle=1" vertex="1" parent="Bbc_HPqRMFwFOX_S-oPe-149">
          <mxGeometry y="346.2068965517241" width="561" height="26" as="geometry" />
        </mxCell>
        <mxCell id="Bbc_HPqRMFwFOX_S-oPe-167" value="+ search_menu_by_id(menu_id)" style="text;strokeColor=none;fillColor=none;align=left;verticalAlign=top;spacingLeft=4;spacingRight=4;overflow=hidden;rotatable=0;points=[[0,0.5],[1,0.5]];portConstraint=eastwest;rounded=1;strokeWidth=2;fontStyle=1" vertex="1" parent="Bbc_HPqRMFwFOX_S-oPe-149">
          <mxGeometry y="372.2068965517241" width="561" height="26" as="geometry" />
        </mxCell>
        <mxCell id="Bbc_HPqRMFwFOX_S-oPe-168" value="+ search_user_by_id(user_id)" style="text;strokeColor=none;fillColor=none;align=left;verticalAlign=top;spacingLeft=4;spacingRight=4;overflow=hidden;rotatable=0;points=[[0,0.5],[1,0.5]];portConstraint=eastwest;rounded=1;strokeWidth=2;fontStyle=1" vertex="1" parent="Bbc_HPqRMFwFOX_S-oPe-149">
          <mxGeometry y="398.2068965517241" width="561" height="26" as="geometry" />
        </mxCell>
        <mxCell id="Bbc_HPqRMFwFOX_S-oPe-169" value="+ watch_cart(user_id)" style="text;strokeColor=none;fillColor=none;align=left;verticalAlign=top;spacingLeft=4;spacingRight=4;overflow=hidden;rotatable=0;points=[[0,0.5],[1,0.5]];portConstraint=eastwest;rounded=1;strokeWidth=2;fontStyle=1" vertex="1" parent="Bbc_HPqRMFwFOX_S-oPe-149">
          <mxGeometry y="424.2068965517241" width="561" height="26" as="geometry" />
        </mxCell>
        <mxCell id="Bbc_HPqRMFwFOX_S-oPe-170" value="+ remove_from_cart(user_id,menu,addon=None,size=None)" style="text;strokeColor=none;fillColor=none;align=left;verticalAlign=top;spacingLeft=4;spacingRight=4;overflow=hidden;rotatable=0;points=[[0,0.5],[1,0.5]];portConstraint=eastwest;rounded=1;strokeWidth=2;fontStyle=1" vertex="1" parent="Bbc_HPqRMFwFOX_S-oPe-149">
          <mxGeometry y="450.2068965517241" width="561" height="26" as="geometry" />
        </mxCell>
        <mxCell id="Bbc_HPqRMFwFOX_S-oPe-171" value="+ show_total_price(user_id)" style="text;strokeColor=none;fillColor=none;align=left;verticalAlign=top;spacingLeft=4;spacingRight=4;overflow=hidden;rotatable=0;points=[[0,0.5],[1,0.5]];portConstraint=eastwest;rounded=1;strokeWidth=2;fontStyle=1" vertex="1" parent="Bbc_HPqRMFwFOX_S-oPe-149">
          <mxGeometry y="476.2068965517241" width="561" height="26" as="geometry" />
        </mxCell>
        <mxCell id="Bbc_HPqRMFwFOX_S-oPe-172" value="+ checkout(user_id)" style="text;strokeColor=none;fillColor=none;align=left;verticalAlign=top;spacingLeft=4;spacingRight=4;overflow=hidden;rotatable=0;points=[[0,0.5],[1,0.5]];portConstraint=eastwest;rounded=1;strokeWidth=2;fontStyle=1" vertex="1" parent="Bbc_HPqRMFwFOX_S-oPe-149">
          <mxGeometry y="502.2068965517241" width="561" height="26" as="geometry" />
        </mxCell>
        <mxCell id="Bbc_HPqRMFwFOX_S-oPe-173" value="+ show_user_coupon(user_id)" style="text;strokeColor=none;fillColor=none;align=left;verticalAlign=top;spacingLeft=4;spacingRight=4;overflow=hidden;rotatable=0;points=[[0,0.5],[1,0.5]];portConstraint=eastwest;rounded=1;strokeWidth=2;fontStyle=1" vertex="1" parent="Bbc_HPqRMFwFOX_S-oPe-149">
          <mxGeometry y="528.2068965517242" width="561" height="26" as="geometry" />
        </mxCell>
        <mxCell id="Bbc_HPqRMFwFOX_S-oPe-174" value="+ apply_coupon(user_id,coupon)" style="text;strokeColor=none;fillColor=none;align=left;verticalAlign=top;spacingLeft=4;spacingRight=4;overflow=hidden;rotatable=0;points=[[0,0.5],[1,0.5]];portConstraint=eastwest;rounded=1;strokeWidth=2;fontStyle=1" vertex="1" parent="Bbc_HPqRMFwFOX_S-oPe-149">
          <mxGeometry y="554.2068965517242" width="561" height="26" as="geometry" />
        </mxCell>
        <mxCell id="Bbc_HPqRMFwFOX_S-oPe-175" value="+ create_order(user_id)" style="text;strokeColor=none;fillColor=none;align=left;verticalAlign=top;spacingLeft=4;spacingRight=4;overflow=hidden;rotatable=0;points=[[0,0.5],[1,0.5]];portConstraint=eastwest;rounded=1;strokeWidth=2;fontStyle=1" vertex="1" parent="Bbc_HPqRMFwFOX_S-oPe-149">
          <mxGeometry y="580.2068965517242" width="561" height="26" as="geometry" />
        </mxCell>
        <mxCell id="Bbc_HPqRMFwFOX_S-oPe-176" value="+ pay_order(user_id,order,payment_method)" style="text;strokeColor=none;fillColor=none;align=left;verticalAlign=top;spacingLeft=4;spacingRight=4;overflow=hidden;rotatable=0;points=[[0,0.5],[1,0.5]];portConstraint=eastwest;rounded=1;strokeWidth=2;fontStyle=1" vertex="1" parent="Bbc_HPqRMFwFOX_S-oPe-149">
          <mxGeometry y="606.2068965517242" width="561" height="26" as="geometry" />
        </mxCell>
        <mxCell id="Bbc_HPqRMFwFOX_S-oPe-177" value="+ exchange_point_to_coupon(user_id,point)" style="text;strokeColor=none;fillColor=none;align=left;verticalAlign=top;spacingLeft=4;spacingRight=4;overflow=hidden;rotatable=0;points=[[0,0.5],[1,0.5]];portConstraint=eastwest;rounded=1;strokeWidth=2;fontStyle=1" vertex="1" parent="Bbc_HPqRMFwFOX_S-oPe-149">
          <mxGeometry y="632.2068965517242" width="561" height="26" as="geometry" />
        </mxCell>
        <mxCell id="Bbc_HPqRMFwFOX_S-oPe-178" value="+ add_to_cart(user_id, menu_item, quantity, addon=None,size = None)" style="text;strokeColor=none;fillColor=none;align=left;verticalAlign=top;spacingLeft=4;spacingRight=4;overflow=hidden;rotatable=0;points=[[0,0.5],[1,0.5]];portConstraint=eastwest;rounded=1;strokeWidth=2;fontStyle=1" vertex="1" parent="Bbc_HPqRMFwFOX_S-oPe-149">
          <mxGeometry y="658.2068965517242" width="561" height="26" as="geometry" />
        </mxCell>
        <mxCell id="Bbc_HPqRMFwFOX_S-oPe-179" value="" style="curved=0;startArrow=block;startSize=16;startFill=0;endArrow=none;exitX=0;exitY=0.75;entryX=0.5;entryY=0;rounded=1;strokeWidth=2;fontStyle=1;exitDx=0;exitDy=0;" edge="1" parent="WIyWlLk6GJQsqaUBKTNV-1" source="Bbc_HPqRMFwFOX_S-oPe-43" target="Bbc_HPqRMFwFOX_S-oPe-57">
          <mxGeometry relative="1" as="geometry">
            <Array as="points">
              <mxPoint x="1907" y="1217" />
            </Array>
          </mxGeometry>
        </mxCell>
        <mxCell id="Bbc_HPqRMFwFOX_S-oPe-180" value="" style="curved=0;startArrow=block;startSize=16;startFill=0;endArrow=none;rounded=1;strokeWidth=2;fontStyle=1;entryX=0.5;entryY=0;entryDx=0;entryDy=0;exitX=0.25;exitY=1;exitDx=0;exitDy=0;" edge="1" parent="WIyWlLk6GJQsqaUBKTNV-1" source="Bbc_HPqRMFwFOX_S-oPe-43" target="Bbc_HPqRMFwFOX_S-oPe-64">
          <mxGeometry relative="1" as="geometry">
            <Array as="points">
              <mxPoint x="2070" y="1460" />
              <mxPoint x="2151" y="1460" />
            </Array>
            <mxPoint x="2070" y="1300" as="sourcePoint" />
            <mxPoint x="2140" y="1550" as="targetPoint" />
          </mxGeometry>
        </mxCell>
        <mxCell id="Bbc_HPqRMFwFOX_S-oPe-181" value="" style="curved=0;startArrow=block;startSize=16;startFill=0;endArrow=none;exitX=0.75;exitY=1;entryX=0.5;entryY=0;rounded=1;exitDx=0;exitDy=0;strokeWidth=2;fontStyle=1" edge="1" parent="WIyWlLk6GJQsqaUBKTNV-1" source="Bbc_HPqRMFwFOX_S-oPe-43" target="Bbc_HPqRMFwFOX_S-oPe-69">
          <mxGeometry relative="1" as="geometry">
            <Array as="points">
              <mxPoint x="2166" y="1380" />
              <mxPoint x="2315" y="1380" />
            </Array>
            <mxPoint x="2212.9999999999995" y="1212.4230769230771" as="sourcePoint" />
          </mxGeometry>
        </mxCell>
        <mxCell id="Bbc_HPqRMFwFOX_S-oPe-182" value="" style="curved=0;startArrow=block;startSize=16;startFill=0;endArrow=none;exitX=0.99;exitY=0.67;entryX=0.5;entryY=0;rounded=1;strokeWidth=2;fontStyle=1" edge="1" parent="WIyWlLk6GJQsqaUBKTNV-1" source="Bbc_HPqRMFwFOX_S-oPe-43" target="Bbc_HPqRMFwFOX_S-oPe-71">
          <mxGeometry relative="1" as="geometry">
            <Array as="points">
              <mxPoint x="2532" y="1194" />
            </Array>
          </mxGeometry>
        </mxCell>
        <mxCell id="Bbc_HPqRMFwFOX_S-oPe-183" value="" style="curved=0;startArrow=block;startSize=16;startFill=0;endArrow=none;entryX=0.5;entryY=0;rounded=1;strokeWidth=2;fontStyle=1;exitX=0.5;exitY=1;exitDx=0;exitDy=0;" edge="1" parent="WIyWlLk6GJQsqaUBKTNV-1" source="Bbc_HPqRMFwFOX_S-oPe-0" target="Bbc_HPqRMFwFOX_S-oPe-11">
          <mxGeometry relative="1" as="geometry">
            <Array as="points">
              <mxPoint x="1040" y="1130" />
              <mxPoint x="900" y="1127" />
              <mxPoint x="676" y="1127" />
            </Array>
            <mxPoint x="1020" y="1010" as="sourcePoint" />
          </mxGeometry>
        </mxCell>
        <mxCell id="Bbc_HPqRMFwFOX_S-oPe-184" value="" style="curved=0;startArrow=block;startSize=16;startFill=0;endArrow=none;exitX=0;exitY=0.5;entryX=0.5;entryY=0;rounded=1;exitDx=0;exitDy=0;strokeWidth=2;fontStyle=1" edge="1" parent="WIyWlLk6GJQsqaUBKTNV-1" source="Bbc_HPqRMFwFOX_S-oPe-1" target="Bbc_HPqRMFwFOX_S-oPe-37">
          <mxGeometry relative="1" as="geometry">
            <Array as="points">
              <mxPoint x="630" y="812" />
            </Array>
          </mxGeometry>
        </mxCell>
        <mxCell id="Bbc_HPqRMFwFOX_S-oPe-185" value="" style="curved=0;startArrow=none;endArrow=open;endSize=12;exitX=0;exitY=0.5;entryX=0.5;entryY=0;rounded=1;exitDx=0;exitDy=0;strokeWidth=2;fontStyle=1" edge="1" parent="WIyWlLk6GJQsqaUBKTNV-1" source="Bbc_HPqRMFwFOX_S-oPe-19" target="Bbc_HPqRMFwFOX_S-oPe-94">
          <mxGeometry relative="1" as="geometry">
            <Array as="points">
              <mxPoint x="330" y="1389" />
            </Array>
          </mxGeometry>
        </mxCell>
        <mxCell id="Bbc_HPqRMFwFOX_S-oPe-186" value="" style="curved=0;startArrow=none;endArrow=open;endSize=12;exitX=0.998;exitY=0.68;entryX=0;entryY=0.5;rounded=1;entryDx=0;entryDy=0;exitDx=0;exitDy=0;strokeWidth=2;fontStyle=1;exitPerimeter=0;" edge="1" parent="WIyWlLk6GJQsqaUBKTNV-1" source="Bbc_HPqRMFwFOX_S-oPe-25" target="Bbc_HPqRMFwFOX_S-oPe-78">
          <mxGeometry relative="1" as="geometry">
            <Array as="points" />
            <mxPoint x="910.9379999999996" y="1437.895" as="sourcePoint" />
            <mxPoint x="1414" y="1661.7647058823532" as="targetPoint" />
          </mxGeometry>
        </mxCell>
        <mxCell id="Bbc_HPqRMFwFOX_S-oPe-187" value="" style="curved=0;startArrow=none;endArrow=open;endSize=12;exitX=0;exitY=0.5;entryX=1.002;entryY=1.041;rounded=1;strokeWidth=2;fontStyle=1;entryDx=0;entryDy=0;entryPerimeter=0;exitDx=0;exitDy=0;" edge="1" parent="WIyWlLk6GJQsqaUBKTNV-1" source="Bbc_HPqRMFwFOX_S-oPe-82" target="Bbc_HPqRMFwFOX_S-oPe-108">
          <mxGeometry relative="1" as="geometry">
            <Array as="points">
              <mxPoint x="1360" y="1570" />
              <mxPoint x="1360" y="1730" />
              <mxPoint x="1230" y="1730" />
            </Array>
          </mxGeometry>
        </mxCell>
        <mxCell id="Bbc_HPqRMFwFOX_S-oPe-188" value="" style="curved=0;startArrow=none;endArrow=open;endSize=12;exitX=0.75;exitY=0;entryX=0;entryY=0.5;rounded=1;exitDx=0;exitDy=0;entryDx=0;entryDy=0;strokeWidth=2;fontStyle=1" edge="1" parent="WIyWlLk6GJQsqaUBKTNV-1" source="Bbc_HPqRMFwFOX_S-oPe-106" target="Bbc_HPqRMFwFOX_S-oPe-48">
          <mxGeometry relative="1" as="geometry">
            <Array as="points">
              <mxPoint x="960" y="1570" />
              <mxPoint x="1200" y="1570" />
              <mxPoint x="1200" y="1146" />
            </Array>
          </mxGeometry>
        </mxCell>
        <mxCell id="Bbc_HPqRMFwFOX_S-oPe-189" value="" style="curved=0;startArrow=none;endArrow=open;endSize=12;exitX=0.503;exitY=0.975;entryX=0.5;entryY=0;rounded=1;exitDx=0;exitDy=0;exitPerimeter=0;strokeWidth=2;fontStyle=1" edge="1" parent="WIyWlLk6GJQsqaUBKTNV-1" source="Bbc_HPqRMFwFOX_S-oPe-93" target="Bbc_HPqRMFwFOX_S-oPe-119">
          <mxGeometry relative="1" as="geometry">
            <Array as="points" />
          </mxGeometry>
        </mxCell>
        <mxCell id="Bbc_HPqRMFwFOX_S-oPe-190" value="" style="curved=0;startArrow=diamondThin;endArrow=none;endSize=12;entryX=0.5;entryY=0;rounded=1;startFill=0;startSize=16;strokeWidth=2;fontStyle=1;exitX=0;exitY=0.5;exitDx=0;exitDy=0;" edge="1" parent="WIyWlLk6GJQsqaUBKTNV-1" source="Bbc_HPqRMFwFOX_S-oPe-177" target="Bbc_HPqRMFwFOX_S-oPe-0">
          <mxGeometry relative="1" as="geometry">
            <Array as="points">
              <mxPoint x="1040" y="702" />
            </Array>
            <mxPoint x="1360" y="700" as="sourcePoint" />
          </mxGeometry>
        </mxCell>
        <mxCell id="Bbc_HPqRMFwFOX_S-oPe-191" value="" style="curved=0;startArrow=diamondThin;endArrow=none;endSize=12;exitX=1;exitY=0.5;entryX=0.5;entryY=0;rounded=1;entryDx=0;entryDy=0;exitDx=0;exitDy=0;startFill=0;strokeWidth=2;targetPerimeterSpacing=0;startSize=16;fontStyle=1" edge="1" parent="WIyWlLk6GJQsqaUBKTNV-1" source="Bbc_HPqRMFwFOX_S-oPe-178" target="Bbc_HPqRMFwFOX_S-oPe-43">
          <mxGeometry relative="1" as="geometry">
            <Array as="points">
              <mxPoint x="2120" y="730" />
            </Array>
          </mxGeometry>
        </mxCell>
        <mxCell id="Bbc_HPqRMFwFOX_S-oPe-192" value="" style="curved=0;startArrow=diamondThin;endArrow=none;endSize=12;exitX=0.506;exitY=1.018;rounded=1;entryX=0.5;entryY=0;entryDx=0;entryDy=0;startFill=0;startSize=16;strokeWidth=2;fontStyle=1;exitDx=0;exitDy=0;exitPerimeter=0;" edge="1" parent="WIyWlLk6GJQsqaUBKTNV-1" source="Bbc_HPqRMFwFOX_S-oPe-178" target="Bbc_HPqRMFwFOX_S-oPe-76">
          <mxGeometry relative="1" as="geometry">
            <Array as="points">
              <mxPoint x="1655" y="1117" />
              <mxPoint x="1520" y="1117" />
            </Array>
            <mxPoint x="1654.8899999999999" y="819.2068965517244" as="sourcePoint" />
            <mxPoint x="1635.654942156652" y="1427" as="targetPoint" />
          </mxGeometry>
        </mxCell>
        <mxCell id="Bbc_HPqRMFwFOX_S-oPe-193" value="" style="curved=0;startArrow=diamondThin;endArrow=none;endSize=12;entryX=1;entryY=0.5;rounded=1;entryDx=0;entryDy=0;startFill=0;startSize=16;strokeWidth=2;fontStyle=1" edge="1" parent="WIyWlLk6GJQsqaUBKTNV-1" target="Bbc_HPqRMFwFOX_S-oPe-144">
          <mxGeometry relative="1" as="geometry">
            <Array as="points">
              <mxPoint x="1120" y="434" />
            </Array>
            <mxPoint x="1370" y="434" as="sourcePoint" />
          </mxGeometry>
        </mxCell>
        <mxCell id="Bbc_HPqRMFwFOX_S-oPe-194" value="" style="curved=0;startArrow=none;endArrow=block;endSize=16;endFill=0;exitX=1;exitY=0.75;rounded=1;exitDx=0;exitDy=0;entryX=0;entryY=0.5;entryDx=0;entryDy=0;strokeWidth=2;fontStyle=1" edge="1" parent="WIyWlLk6GJQsqaUBKTNV-1" source="Bbc_HPqRMFwFOX_S-oPe-133" target="Bbc_HPqRMFwFOX_S-oPe-132">
          <mxGeometry relative="1" as="geometry">
            <Array as="points" />
            <mxPoint x="1368" y="2428" as="sourcePoint" />
            <mxPoint x="1368" y="2248" as="targetPoint" />
          </mxGeometry>
        </mxCell>
        <mxCell id="Bbc_HPqRMFwFOX_S-oPe-195" value="" style="curved=0;startArrow=none;endArrow=block;endSize=16;endFill=0;exitX=0;exitY=0.75;entryX=1;entryY=0.5;rounded=1;entryDx=0;entryDy=0;exitDx=0;exitDy=0;strokeWidth=2;fontStyle=1;" edge="1" parent="WIyWlLk6GJQsqaUBKTNV-1" source="Bbc_HPqRMFwFOX_S-oPe-136" target="Bbc_HPqRMFwFOX_S-oPe-132">
          <mxGeometry relative="1" as="geometry">
            <Array as="points">
              <mxPoint x="1723" y="2146" />
            </Array>
          </mxGeometry>
        </mxCell>
        <mxCell id="Bbc_HPqRMFwFOX_S-oPe-196" value="" style="curved=0;startArrow=block;startSize=16;startFill=0;endArrow=none;exitX=0.5;exitY=1;entryX=0.5;entryY=0;rounded=1;entryDx=0;entryDy=0;strokeWidth=2;fontStyle=1" edge="1" parent="WIyWlLk6GJQsqaUBKTNV-1" source="Bbc_HPqRMFwFOX_S-oPe-119" target="Bbc_HPqRMFwFOX_S-oPe-128">
          <mxGeometry relative="1" as="geometry">
            <Array as="points" />
          </mxGeometry>
        </mxCell>
        <mxCell id="Bbc_HPqRMFwFOX_S-oPe-198" value="" style="curved=0;startArrow=none;endArrow=open;endSize=12;entryX=0;entryY=0.5;rounded=1;entryDx=0;entryDy=0;strokeWidth=2;fontStyle=1;exitX=1;exitY=1.019;exitDx=0;exitDy=0;exitPerimeter=0;" edge="1" parent="WIyWlLk6GJQsqaUBKTNV-1" source="Bbc_HPqRMFwFOX_S-oPe-98" target="Bbc_HPqRMFwFOX_S-oPe-110">
          <mxGeometry relative="1" as="geometry">
            <Array as="points" />
            <mxPoint x="640" y="1995" as="sourcePoint" />
            <mxPoint x="429.12" y="2740.82" as="targetPoint" />
          </mxGeometry>
        </mxCell>
      </root>
    </mxGraphModel>
  </diagram>
</mxfile>
